<?xml version="1.0" encoding="UTF-8"?>
<svg width="189px" height="111px" viewBox="0 0 189 111" version="1.1" xmlns="http://www.w3.org/2000/svg" xmlns:xlink="http://www.w3.org/1999/xlink">
    <!-- Generator: Sketch 46.2 (44496) - http://www.bohemiancoding.com/sketch -->
    <title>cutouts</title>
    <desc>Created with Sketch.</desc>
    <defs></defs>
    <g id="Page-1" stroke="none" stroke-width="1" fill="none" fill-rule="evenodd">
        <g id="landingpage" transform="translate(-452.000000, -282.000000)">
            <g id="cutouts" transform="translate(453.000000, 283.000000)">
                <path d="M104.332473,104.426779 C107.47127,106.490236 115.030112,104.212629 112.789338,99.2258888 C112.64179,98.8975281 112.058475,98.8993604 111.725967,99.037308 C110.383961,99.5940663 109.411614,101.208657 107.958854,101.229912 C107.246169,101.240339 107.503377,99.6091714 107.993756,99.091912 C109.89044,97.0912614 119.688071,96.5792741 117.767309,93.0804057 C116.893092,91.4879291 111.578645,94.4266023 110.844985,94.3683845 C110.474617,94.3389949 110.625725,93.5537225 110.844985,93.2537874 C111.631532,92.1778404 114.344626,90.2529247 115.578082,89.6651225 C116.678726,89.1406119 117.929209,88.9639757 119.009691,88.3990978 C119.165669,88.3175519 119.126915,88.0023631 119.009691,87.8710715 C118.769773,87.6023636 118.407208,87.4608488 118.066786,87.3430452 L113.206468,87.3801984 C112.082317,86.9911836 114.729655,83.6625068 114.171889,82.7230965 C113.663026,81.866051 111.911417,82.9896279 111.8014,83.3378137 C111.146872,85.4092829 111.312474,87.6705595 110.757731,89.7709529 C110.60146,90.3626347 109.870085,91.8643952 109.705056,91.2750961 L108.412574,91.1152246 C107.900925,89.2881816 108.685369,87.2280833 108.069188,85.433594 C107.904596,84.9542571 106.738319,85.4251623 106.628656,85.9199636 L105.904168,87.0503227 C105.286796,89.8359195 107.180618,91.5199966 108.079884,94.1859959 C108.247014,94.681478 108.449957,95.3520088 108.115911,95.7543129 C107.831937,96.0963141 107.113267,96.0454843 106.782335,95.7486836 C106.041798,95.084522 104.767061,90.8838587 102.452857,92.2303846 C102.164555,92.3981341 102.29177,92.9045032 102.373484,93.2278928 C102.510851,93.7715282 102.772999,94.2872127 103.089528,94.7500496 C103.39225,95.1926958 103.767628,95.5996496 104.206377,95.9079922 C106.078329,97.2235564 106.482961,96.4382926 107.28897,98.4878904 C107.375575,98.708117 107.409256,99.0607811 107.213538,99.1938019 C106.850548,99.4405099 106.304432,99.6260282 105.916552,99.4206618 C102.911323,97.8295186 104.002382,96.5147844 101.095638,96.6307915 C100.910291,96.6381886 100.671102,96.838781 100.6999,97.0220263 C100.809079,97.7167563 100.980264,98.4792556 101.466045,98.9877703 C102.159009,99.7131654 104.264334,100.22844 104.884142,101.439884 C104.997099,101.660663 105.16921,102.176512 104.921296,102.182949 C103.313365,102.224696 101.741566,101.469104 100.135846,101.563165 C99.7863452,101.583639 99.5319115,102.160847 99.645536,102.491996 C99.9140404,103.274529 100.410439,104.078653 101.135606,104.47688 C101.776161,104.828641 102.596967,104.501648 103.327647,104.514033 L104.332473,104.426779 Z" id="Path" stroke="#77994E" fill="#77994E"></path>
                <path d="M87.2453866,100.988462 C86.8461155,101.376225 78.6557712,108.164108 86.3638023,107.241672 C88.2471133,107.016292 86.810999,103.657251 88.5020112,102.939574 C90.8836545,101.928788 89.2198656,106.106991 89.2653549,106.276839 C89.3722417,106.675934 90.0729599,106.764653 90.4579207,106.61463 C91.0807061,106.371924 91.5783685,105.816818 91.9199849,105.242304 C93.0507963,103.340561 93.9001122,101.284041 94.8232307,99.2732668 C95.1296279,98.60586 95.4462239,97.9306298 95.6057638,97.2137909 C95.7456051,96.5854612 95.8754735,95.9078044 95.7107412,95.2855367 C95.4079774,94.1418619 93.0641649,94.9260449 92.9059823,95.1376653 C91.9503109,96.4161848 91.9912678,98.2167755 91.2528705,99.6319395 C91.1164641,99.8933671 90.6000754,100.142188 90.4141801,99.9132902 C88.4935938,97.5484259 92.7771417,89.6014308 88.9967031,88.6601085 C84.192652,87.4639086 90.1524436,98.6451658 85.0391681,94.7733486 C81.967379,92.4473629 83.8627814,82.8653965 79.2843186,83.6985156 C76.4929551,84.2064454 82.5869351,92.2759976 78.7678975,89.9356403 C75.2404392,87.7739667 76.4674067,80.4125094 71.3413112,80.5314153 C69.5304186,80.5734211 69.8643408,84.581291 70.7611135,85.4221767 C72.409225,86.9675775 74.3134144,88.2214936 75.9803526,89.7465681 C76.3172452,90.0547897 77.1859674,90.8092184 76.7363592,90.8889028 C74.2874704,91.3229209 71.7470706,90.659221 69.2753447,90.9349009 C65.3933028,91.3678782 67.8071598,95.3441029 70.5170128,95.4009554 C77.8080808,95.5539214 72.5449001,94.6550577 79.6847565,93.8460483 C80.4896804,93.7548432 81.418185,93.7459149 82.0890775,94.1999237 C88.6719428,98.6547045 78.4097697,92.9206148 75.0558742,98.5217754 C74.4895443,99.4675725 75.4095082,101.195604 76.5591392,101.168786 C79.0772489,101.110044 81.4945807,100.140667 83.9893942,99.7939208 C84.813579,99.67937 85.6536057,99.7907226 86.4857115,99.7891234 L87.2453866,100.988462 Z" id="Path-2" stroke="#77994E" fill="#77994E"></path>
                <path d="M119.414002,97.4000308 C121.169513,99.3124829 136.793193,109.27386 137.09967,100.617919 C137.225713,97.058044 131.568311,99.9635669 130.458767,100.178915 C129.958757,100.275961 126.072759,100.680652 127.767241,98.4991995 C130.846569,94.5349165 137.958454,96.1420985 141.901069,95.2857345 C143.506562,94.93701 146.180308,93.145141 145.429135,91.0217562 C144.357096,87.9913596 136.044565,93.3376588 132.958989,92.5317309 C131.926938,92.2621674 133.19846,89.8601195 133.307317,89.7694338 C133.917715,89.2609293 134.721723,89.0181468 135.487409,88.8062789 C138.677822,87.9234809 143.972074,87.6314297 147.147554,85.2654961 C147.420274,85.0623017 147.516995,84.6791284 147.593192,84.3476792 C147.669417,84.0161093 147.727356,83.6396708 147.593192,83.3270226 C145.013463,77.3153607 136.695991,86.2688603 135.657149,85.4639878 C134.538205,84.5970534 144.492226,73.5480862 135.580296,76.109996 C131.292613,77.3425751 135.366388,89.5205748 129.535421,92.2132595 C128.77834,92.5628724 128.621201,92.0029999 128.535222,91.3982823 C128.425251,90.6248239 128.150789,89.8053826 128.383174,89.0595079 C129.156856,86.5762557 132.32064,85.7426892 126.939547,85.7481793 C126.641437,85.7484835 126.340362,85.8654192 126.089737,86.0268418 C123.116552,87.9418144 127.9945,93.5233485 126.023389,96.0774898 C123.475436,99.3790974 123.838422,92.1660992 120.571225,93.7265516 C120.169464,93.9184375 119.9443,94.3812357 119.756248,94.7848055 C119.588893,95.1439592 119.60807,95.5632912 119.533981,95.952534 L119.414002,97.4000308 Z" id="Path-3" stroke="#812D30" fill="#812D30"></path>
                <path d="M149.058382,93.7724424 C150.1985,100.332818 150.249805,102.919139 157.311546,104.310197 C158.535736,104.551344 160.058339,105.223204 161.051374,104.467774 C163.838928,102.347202 159.811362,100.10594 158.807699,99.8482798 C157.124924,99.4162788 155.307817,99.7762594 153.617057,99.3766546 C153.371871,99.3187059 153.369294,98.6795748 153.614292,98.6208379 C157.758637,97.6272542 167.5784,100.782268 170.812854,98.389172 C171.632802,97.7825125 171.279459,96.3647483 171.17224,95.350424 C171.042153,94.1197545 168.320013,94.1267153 168.035629,94.1423337 C166.374516,94.2335622 164.758279,94.735427 163.103192,94.9036794 C162.809995,94.9334852 162.058571,93.9883927 162.658659,93.7923469 C164.211324,93.2850989 175.732886,93.158239 174.831344,88.64262 C174.388759,86.4258107 171.435995,86.4704225 169.757918,86.757225 C165.838746,87.4270559 162.51913,89.5188344 159.653638,92.1695803 C158.927645,92.841166 158.396148,95.079332 157.686414,94.3905866 L156.340651,95.0900073 C154.322725,93.1317586 161.145404,89.753974 158.297923,89.025228 C153.443257,87.7827898 154.844833,97.738078 153.162019,95.3498711 C152.130987,93.8866566 151.818942,90.4808029 149.623448,92.9524891 L149.058382,93.7724424 Z" id="Path-4" stroke="#77994E" fill="#77994E"></path>
                <path d="M148.795754,79.7718643 C148.672272,80.4198652 147.872787,81.3554891 148.425309,81.7158669 C150.076671,82.7929536 152.292819,82.5559023 154.136232,83.2551453 C155.677905,83.8399324 156.943304,85.0652447 158.520743,85.5452644 C159.705121,85.9056746 161.943335,86.9225076 162.230713,85.7183226 L162.63212,85.1997008 C163.635225,80.9964513 155.787293,82.5668513 154.267822,81.0523848 C154.098912,80.8840307 153.794469,80.4907495 154.008511,80.3855852 C157.728016,78.5581024 170.67605,81.3042264 171.514487,79.571161 C171.766949,79.0493163 171.8465,78.1631372 171.366309,77.8383669 C168.160242,75.6699894 158.04293,77.3342123 156.865908,77.3413082 C156.265689,77.3449268 154.669842,77.2624672 155.127032,76.8735533 L155.015345,75.7992652 C159.136193,72.2938138 167.006829,75.5427414 171.405565,75.7351286 C173.476528,75.8257062 177.214264,77.6616713 177.623498,75.6295244 L178.14986,74.7857963 C178.242079,74.3278617 178.460209,73.6509604 178.075219,73.386402 C171.081827,68.5806662 165.575941,74.7849227 159.346778,72.3303596 C159.02551,72.2037662 158.528223,71.8817586 158.653992,71.5601675 C160.601473,66.5804686 168.738445,68.7174396 171.724589,68.6270237 C173.85466,68.5625285 175.891131,64.5569816 173.990381,64.1230861 C167.385285,62.6153022 161.932372,68.0682912 156.667969,71.1626311 C156.437235,71.2982532 155.995534,71.3240988 155.868473,71.0885423 C153.922063,67.4801302 164.891882,67.7420538 163.349786,64.0970997 C163.287054,63.9488239 163.100502,63.8079147 162.942298,63.8377888 L161.461627,63.8377888 C160.481761,64.0228193 159.444552,64.1542587 158.585432,64.6605066 C153.770138,67.4979831 154.974462,69.6287761 154.608963,74.3760961 C154.578419,74.7728135 154.247803,75.1656271 153.88245,75.3232168 C153.483139,75.4954534 152.731003,75.6590845 152.579813,75.2513396 C152.1576,74.1126696 153.573139,72.1869911 152.505171,71.6088229 L152.093813,71.0459689 C151.131892,70.5252116 148.707593,70.4724525 149.565946,72.4083188 C150.314186,74.0958464 151.496981,75.5665967 152.253048,77.2506323 C152.442954,77.6736218 152.564758,78.2200747 152.362523,78.6373099 C152.239788,78.8905273 151.756406,78.9121722 151.525982,78.7506548 C150.147392,77.7843203 149.066258,76.4455365 147.745793,75.401176 C147.454066,75.1704476 147.093035,74.9994226 146.724031,74.9527726 C146.380688,74.9093668 145.955927,74.9063584 145.703374,75.1429709 C145.447778,75.3824341 145.336315,75.8235402 145.436323,76.1592043 C145.896348,77.7032243 146.67594,78.038763 147.812141,78.8827983 L148.795754,79.7718643 Z" id="Path-5" stroke="#33629A" fill="#33629A"></path>
                <path d="M116.234111,83.1349839 C118.512905,83.0614352 127.778722,84.8204121 127.364125,79.5545181 C126.961776,74.4441876 114.082997,82.9963109 120.570902,77.7152576 C124.276352,74.6990787 133.917982,77.1514181 132.822785,69.8441451 C132.773582,69.5158557 132.375066,69.2828492 132.049878,69.2161577 C131.302382,69.0628568 130.498581,69.021719 129.760716,69.2161577 C127.598632,69.7858997 125.583692,70.8221763 123.447675,71.4829689 C123.124633,71.5829044 122.71647,71.6676877 122.433234,71.4829689 C122.229133,71.3498592 122.169681,70.935869 122.336621,70.758368 C123.382735,69.6460745 124.538204,68.5934241 125.863733,67.8354505 C126.628693,67.3980257 133.514736,65.5015834 134.768032,62.8447168 C135.042712,62.2624225 135.140323,61.3994708 134.717563,60.9138897 C130.681181,56.2777204 125.174835,64.3012945 123.348178,66.3992267 C122.664338,67.1846229 121.44988,69.445746 121.029455,68.4929988 L120.092881,68.4929988 C118.766043,65.4861784 123.402533,63.3995392 122.569502,60.5750217 C121.999369,58.6418971 117.625205,60.2212038 117.469177,61.7689909 C117.126351,65.1698131 119.28966,69.466405 118.109422,72.6798221 C117.900419,73.2488714 115.893684,73.5022163 115.533303,73.1592844 C114.157906,71.85048 116.484603,66.6649932 113.420785,68.0171415 C111.462223,68.8815094 111.717306,70.1240728 112.716372,71.8773536 C113.218423,72.7584124 114.154847,73.3159882 114.767606,74.1239769 C115.16233,74.6444636 115.50472,75.2200863 115.71932,75.8370632 C115.892541,76.3350721 116.205693,76.9710612 115.909663,77.4073923 C115.655128,77.7825635 114.975457,77.7247874 114.557075,77.5501495 C113.85424,77.2567773 111.396804,73.7334684 110.039314,76.1413235 C109.544821,77.0184343 110.933913,77.9666177 111.577199,78.7412347 C112.680714,80.0700419 114.019933,81.1839689 115.2413,82.405336 L116.234111,83.1349839 Z" id="Path-7" stroke="#C85F42" fill="#C85F42"></path>
                <path d="M139.686987,63.4965233 C140.786861,63.4965233 141.913508,63.2553243 142.986609,63.4965233 C143.342972,63.5766225 152.444956,68.0135345 152.822103,64.3741653 C153.294641,59.8142867 149.520186,60.8261882 146.537977,59.3357536 C146.160695,59.1471972 145.478869,58.3854361 145.879963,58.2549778 L145.879963,57.2080577 C149.102836,56.1597979 159.961167,57.0760535 160.342392,55.5065954 C160.440268,55.1036531 160.52932,54.6327535 160.342392,54.2626182 C158.59162,50.7959148 148.825244,55.0943646 149.678738,52.2746852 C151.025206,47.8263685 162.10975,54.1138175 163.608158,48.8665521 C165.651409,41.7113035 153.369903,49.3630304 152.098113,48.408199 C149.74308,46.6400934 158.940919,42.5214121 156.210269,38.8652528 C152.874115,34.3983623 150.341829,45.1249017 149.985175,45.9836153 C149.844237,46.3229487 149.339437,47.1362024 149.229066,46.7857332 L148.29847,47.0149098 C146.317277,40.7238834 150.492954,47.0735317 148.877488,40.0875277 C148.475004,38.3470066 145.346876,38.6123916 145.038781,40.3010786 C144.391136,43.8508555 146.004204,44.803059 147.029318,48.6052561 C147.276178,49.5208734 147.801434,50.6587359 147.264571,51.4404478 C145.911195,53.411064 144.898621,52.6066634 144.266178,51.2051946 C143.619362,49.7718757 142.742395,43.4922826 139.166132,45.2518129 C138.343586,45.6565073 138.428332,48.7066633 138.468185,49.0818392 C138.961082,53.7219524 144.52598,51.2080543 142.877229,57.5570311 C142.749723,58.0480309 141.755782,58.0515218 141.365011,57.7280454 C139.37127,56.0776453 138.06139,53.7190694 136.142564,51.9821379 C135.738578,51.6164473 135.104066,51.5253015 134.560898,51.5689256 C134.327362,51.5876819 134.211395,51.9147773 134.153763,52.141867 C134.0692,52.4750688 134.056517,52.843438 134.153763,53.1731615 C134.542965,54.4927999 134.925912,55.8392897 135.598269,57.0396476 C136.623587,58.8701436 138.004623,60.4772959 139.2078,62.19612 L139.686987,63.4965233 Z" id="Path-8" stroke="#33629A" fill="#33629A"></path>
                <path d="M165.938503,39.9160987 C165.938503,40.9982244 165.717741,42.1031079 165.938503,43.1624759 C166.19785,44.4070047 174.654841,44.9327773 175.713987,43.6900121 C179.615557,39.1120455 172.129577,41.5848013 171.27389,41.4116302 C170.936214,41.3432925 170.082765,40.936586 170.413262,40.8392872 L170.299977,39.9896494 C173.480984,39.0531559 176.859662,38.9156892 180.047562,38.0029342 C182.978536,37.1637421 184.949399,30.5394809 180.347683,32.6616293 C178.200569,33.6518019 176.333347,35.188406 174.180412,36.1658567 C173.706219,36.3811442 172.990878,36.534575 172.618093,36.1709292 C171.246636,34.8330974 174.375798,32.9294621 174.607344,32.7605423 C176.672436,31.2540004 184.931148,31.3625157 184.104688,28.0566771 C183.572308,25.9271545 177.958826,30.3375342 176.382707,29.0787787 C172.648214,26.0962539 191.274825,23.6849532 185.759157,19.1409756 C182.058664,16.0923952 176.895293,24.6922341 175.89575,24.4222564 C174.390678,24.0157348 179.306401,17.5095113 174.570992,19.2111447 C171.190552,20.4258797 175.124729,25.9328326 174.124615,28.0017254 C172.200342,31.9823848 171.490045,21.7415338 168.913503,23.9082467 C166.804078,25.6821428 172.488981,30.5670757 171.866523,33.8519676 C171.384073,36.3979904 167.775908,28.130614 166.339227,30.2048657 C164.528865,32.8186324 170.292958,35.4867756 169.462175,38.4628377 C169.390927,38.7180649 168.89991,38.6489444 168.669179,38.5186348 C166.669083,37.3890414 164.909785,35.8611728 162.896715,34.7548662 C162.582327,34.5820904 162.126567,34.5677333 161.820507,34.7548662 C161.492591,34.9553627 161.353281,35.3878821 161.254082,35.7592142 C161.158076,36.1185921 161.019521,36.586451 161.254082,36.8751563 C162.459443,38.3587529 164.093179,39.4432978 165.388986,40.8485867 C165.670911,41.1543319 165.760966,41.5925481 165.946957,41.9645289" id="Path-9" stroke="#33629A" fill="#33629A"></path>
                <path d="M141.388994,36.8539099 C146.731724,34.3273646 139.48079,37.4236852 148.671594,35.4772194 C150.648049,35.0586379 154.262557,34.7401031 153.39854,31.8026571 C153.291646,31.4392444 152.779219,31.3212596 152.408062,31.2455133 C149.810234,30.7153443 148.128262,32.0240658 145.476564,32.7145991 C145.15706,32.7978015 144.643687,33.0047144 144.486086,32.7145991 C143.909066,31.6524107 145.569438,30.7124762 147.859439,29.9723056 C149.960075,29.2933418 155.114387,28.9580627 156.851353,27.450837 C157.524332,26.86687 157.932243,24.4833036 157.095277,24.7889276 L154.619082,24.8499085 C152.941828,25.4623694 151.548594,26.6917945 149.914312,27.411107 C149.574354,27.5607357 149.076828,27.6587742 148.800024,27.411107 C148.536055,27.1749245 150.141739,26.1431936 152.923628,24.6253878 C153.885255,24.1007216 154.590887,23.181208 155.545807,22.6444319 C158.113181,21.2012693 161.014274,20.3541729 163.454847,18.705619 C163.907341,18.3999698 163.883503,17.6279355 163.759752,17.0960923 C163.433322,15.6931939 160.168728,16.1325603 159.959532,16.2285001 C157.223712,17.4831804 154.394805,23.6154658 150.725543,22.6379642 C148.11646,21.9428977 158.706994,15.354297 153.458597,14.7021293 C147.078973,13.909395 149.318602,26.7887753 144.130364,26.9870125 C143.105073,27.0261878 142.796715,26.3775058 143.325601,25.0439387 C143.969927,23.4192893 145.392003,22.1651166 145.967183,20.5147195 C147.47164,16.1978967 145.994249,16.0390796 144.960998,16.3929638 C134.758029,19.8874372 142.703616,26.6707001 142.637255,32.1371282 C142.608805,34.4807136 141.068197,33.6651447 140.015076,32.5639947 C138.975511,31.4770183 138.691596,25.9716915 135.180952,27.5848103 C134.93907,27.6959535 134.784399,27.9919587 134.747618,28.2556004 C134.614986,29.2062945 134.588121,30.1797115 134.685713,31.1346389 C134.717206,31.4427951 134.902153,31.7386421 135.125515,31.9532615 C136.692767,33.4591698 138.388918,34.8249084 140.02062,36.2607319 L141.388994,36.8539099 Z" id="Path-10" stroke="#E5A63B" fill="#E5A63B"></path>
                <path d="M116.058775,26.1602843 C116.058775,31.3479795 123.735018,33.2700618 127.460913,29.9166778 C128.709045,28.7933324 127.941093,27.5233352 126.774683,27.3733385 C125.005338,27.1458061 123.195606,27.373355 121.428524,27.1288691 C120.914548,27.0577576 120.478881,25.9931461 121.04252,25.6441823 C125.807486,22.6940635 127.022575,26.165436 133.723475,24.133047 C134.581807,23.8727142 134.929111,21.6798364 134.058727,21.4631841 L133.627689,21.1279322 C131.669418,20.640488 124.212494,23.1408221 126.293607,20.2008072 C127.39784,18.6408438 139.416465,19.9646969 137.850147,15.7517504 C137.063581,13.6361153 125.983316,16.7426079 129.997819,13.3506609 C131.074718,12.4407635 132.724396,12.4169657 133.808539,11.5157109 C134.494133,10.9457723 134.744132,9.98454411 135.053045,9.148218 C135.20164,8.74592597 135.403333,8.21666578 135.156694,7.86582601 C134.665513,7.16712747 132.75087,7.20401619 132.227351,7.8593926 C130.555237,9.95265854 129.149406,12.2615142 127.359408,14.2549116 C127.03917,14.6115391 126.237162,15.2003459 126.018401,14.7738729 C124.797931,12.3945817 130.679139,7.22184789 127.385142,5.66345715 C120.94156,2.61499744 123.482044,14.7779692 123.692367,16.0341054 C123.849865,16.9747428 124.208043,18.0329158 123.796732,18.8933964 C120.264892,26.2821491 120.898637,10.6223483 117.14888,12.9339192 C116.146714,13.5517136 116.329963,18.991948 116.372583,19.1485881 C116.607957,20.0136643 117.813209,20.400176 118.023823,21.2716116 C118.153505,21.8081837 117.727719,24.1313996 116.395457,23.6405342 C115.085376,23.1578412 113.999042,22.1794743 112.698394,21.6719124 C112.124392,21.4479154 111.474527,21.4373383 110.85987,21.4803399 C110.740113,21.4887181 110.732837,21.691698 110.71619,21.810588 C110.668164,22.1535842 110.505028,22.5430665 110.668297,22.8485106 C111.193921,23.8318468 114.779595,25.3922357 114.887181,25.4483209 L116.058775,26.1602843 Z" id="Path-11" stroke="#77994E" fill="#77994E"></path>
                <path d="M115.014419,55.1334795 C115.247853,59.8852846 119.320754,57.2623634 122.773105,56.6095884 C123.690915,56.4360479 124.662272,56.6361192 125.568062,56.4080084 C126.221515,56.2434454 128.984575,54.6116798 127.912681,53.3049629 C124.579652,49.2417571 115.091545,57.2135445 121.46498,51.1562058 C124.568296,48.2068007 135.370014,49.5085285 133.555492,44.9229515 C133.253653,44.1601596 131.722359,43.7579738 131.057186,43.9879634 C128.999571,44.6994024 127.145788,45.926041 125.091276,46.6463891 C124.50038,46.8535676 122.463346,47.0255817 123.331382,45.4397684 C123.738222,44.6965131 124.353781,43.9921748 125.122728,43.6362706 C126.866417,42.8292102 138.850711,40.3634028 134.878628,35.2656963 C131.272255,30.637335 128.457782,41.4759464 124.02619,40.2909002 C123.072748,40.0359415 128.241605,32.9420126 122.394964,34.6781121 C117.888344,36.0163062 122.661024,43.3152357 119.917389,45.6356298 C116.743896,48.3195698 120.16052,39.0383693 115.752116,40.7905613 C111.208038,42.5966797 119.326466,48.4742692 118.142484,50.7008637 C118.029813,50.9127515 117.645106,50.8415387 117.424087,50.748042 C115.838543,50.0773166 114.49485,48.1247739 112.802758,48.4420239 C111.775269,48.6346676 112.656025,50.5992225 113.047227,51.5686585 C113.43217,52.5225826 114.363454,53.1498464 115.021568,53.9404403 L115.014419,55.1334795 Z" id="Path-12" stroke="#409171" fill="#409171"></path>
                <path d="M98.5579229,50.456251 C101.249308,49.3101441 105.621667,49.7559399 107.474238,47.3538779 C108.661478,45.8144903 107.262653,45.3037419 105.340164,45.2355685 C103.847829,45.1826489 102.41708,45.8959265 100.928471,46.0138585 C100.717848,46.0305446 100.26889,45.7635633 100.428142,45.6247135 L100.205773,44.1577449 C102.785196,41.9087733 108.5999,45.8678914 110.053049,42.3439477 C110.261704,41.8379522 110.662969,41.0279756 110.217336,40.7102027 C109.237271,40.011335 102.844948,40.6294097 102.694144,40.5956995 C102.294719,40.5064137 102.447284,39.5753867 102.802839,39.3726725 C106.264319,37.3991613 112.133909,38.4060955 114.030791,36.6611038 C114.653709,36.0880656 113.923803,34.9518486 113.307263,34.8821554 C111.283779,34.6534221 109.227294,34.9118801 107.200426,34.715379 C106.639841,34.6610314 106.051744,34.489552 105.613146,34.1362251 C105.392399,33.9583954 105.358455,33.571831 105.446369,33.302343 C106.365315,30.4854433 114.880112,34.7248009 113.513037,27.6493695 C113.248338,26.2793906 110.653981,26.7671604 110.091217,27.0934481 C110.017082,27.1364313 107.014514,32.5562056 105.410691,29.8315683 C104.868656,28.9107375 106.684307,28.084313 107.065179,27.0859805 C107.237043,26.6354963 107.320515,26.0090918 107.009587,25.640585 C106.690724,25.2626726 105.984175,25.0460616 105.564192,25.3070322 C103.163708,26.7986515 104.68567,31.1176434 104.118796,32.6949782 C103.208827,35.2269828 99.645166,27.1834142 99.4490565,30.9044136 C99.383537,32.1475874 103.248674,38.438407 100.926812,36.900067 C99.9038493,36.2223076 99.1780489,35.1475216 98.1364183,34.4988186 C97.5575275,34.138299 96.5944028,33.4039625 96.1691205,33.9370891 C92.8892466,38.0486825 100.507163,37.5726827 99.678063,41.3341622 C99.609237,41.6464134 99.0379323,41.5946372 98.7329966,41.4984494 C97.6348822,41.1520643 96.6970935,40.3913554 95.5982639,40.0472457 C95.1213274,39.8978881 94.5649623,39.8667039 94.0989357,40.0472457 C93.9109041,40.1200904 93.9040827,40.5037945 94.0433436,40.6496321 C95.1632584,41.8224361 96.6406458,42.6256572 97.7182327,43.8374678 C98.0183133,44.1749263 98.459093,44.9675185 98.0468071,45.1517655 C94.6556698,46.6672349 92.6428968,40.4294879 90.8264672,43.3860928 C90.2893728,44.2603222 90.982037,45.307337 92.8518464,46.5191661 C97.2035687,49.3395305 95.3020354,45.4379825 97.1813952,51.0760618 C97.21603,51.1799662 97.4004448,51.0760618 97.5099696,51.0760618 L98.5579229,50.456251 Z" id="Path-13" stroke="#812D30" fill="#812D30"></path>
                <path d="M97.953877,25.964181 C97.1061161,25.6284514 91.0784711,23.1683756 93.1439126,21.3931798 C94.0574625,20.6080063 99.516964,25.0057669 98.467482,22.2071482 C97.771913,20.3522976 91.6885426,19.8478392 93.2418211,17.0710986 C94.0654079,15.598802 97.7635687,19.8651872 98.6085366,18.7123112 C100.477049,16.1629099 95.4041723,14.8642707 96.3234509,12.6867874 C97.5570009,9.76489369 100.096767,15.126068 101.197305,14.1579047 C103.27515,12.3299861 96.7509422,8.04720801 100.283768,6.6363716 C101.956709,5.96828152 102.603204,8.86568315 103.131413,9.53794923 C103.238404,9.67411907 103.615436,9.87518466 103.624275,9.70223644 C103.694024,8.33743254 101.717533,1.20861135 105.28872,0.217554151 C105.767697,0.0846308859 106.352014,-0.0926704891 106.778921,0.161962014 C108.718099,1.31860047 106.535936,4.54283818 107.100028,4.76200389 C107.999347,5.11141473 110.617405,2.40490719 113.021005,2.52670215 C114.655275,2.60951368 114.109018,5.66564397 112.785361,6.26216184 C112.223424,6.51540395 111.544868,6.46953591 111.008072,6.77244787 C109.514021,7.61553578 108.021586,8.51240172 106.75237,9.66655791 C103.860241,12.2965022 114.810753,6.67364803 112.615266,11.611453 C111.753746,13.5490726 105.317276,13.0255011 103.48322,15.2838529 C103.234816,15.5897243 102.645157,16.3555089 103.038483,16.379101 C104.930599,16.4925916 106.779101,15.7165958 108.670713,15.5950029 C109.394307,15.5484903 109.99909,17.4209219 109.711199,17.5664494 C102.987128,20.9654402 104.821555,17.7221 101.042145,20.0597983 C100.820155,20.1971069 100.631412,20.4170201 100.541815,20.6621847 C100.454095,20.9022158 100.286258,21.4295427 100.541815,21.4288583 C102.010848,21.4249244 105.647285,19.3980406 104.879662,20.6505684 L105.208236,21.9101037 C103.149543,25.2692647 102.28262,24.9163929 99.0159357,25.8040425 L97.953877,25.964181 Z" id="Path-14" stroke="#C85F42" fill="#C85F42"></path>
                <path d="M86.193236,43.0284777 C87.6364328,41.9668462 97.0708218,34.8842024 93.6483905,31.4312943 C91.1702912,28.9311274 87.9520891,35.7867493 87.89253,35.8653895 C87.4585482,36.4384063 86.3161007,37.2587414 85.458922,37.2518739 C85.355076,37.251042 85.3446731,37.0669398 85.3419296,36.9631267 C85.2050667,31.7842345 92.6337526,29.2895602 91.4827863,24.0682402 C91.4146421,23.7591059 91.271403,23.3677254 90.9708408,23.2683772 C86.4002108,21.7575966 88.7281452,29.6373592 84.9685496,29.1030624 C84.8012631,29.0792884 84.6874048,28.8059537 84.746181,28.6475388 L84.932871,24.5851641 C85.9237442,21.9145413 89.8778186,18.4478083 89.0076917,14.7835237 C88.7501362,13.6989043 86.2767823,12.5529308 85.3261646,13.5505399 C82.8932878,16.10368 86.1010804,22.3907422 82.3938869,23.7570902 C81.8450489,23.9593736 80.9431598,24.2066095 80.6398305,23.7064765 C79.4707785,21.7789288 80.5900152,18.3732332 77.9655998,17.6577201 C77.526117,17.5379008 76.7673158,17.234422 76.5990289,17.6577201 C74.786746,22.2162231 82.5981663,24.59846 80.9086641,29.810825 C80.6878495,30.4920709 78.9733929,29.7397489 78.7314437,29.4150421 C77.683502,28.0086572 76.988801,23.6689969 75.8564176,25.0083281 L74.7337883,24.890506 C71.4209321,28.8088005 85.3489819,32.3491863 82.9323838,35.7318024 C81.5706515,37.6378776 78.1848354,33.1911874 76.0207048,34.27645 C74.1193232,35.2299499 75.1873493,36.3057626 77.392254,37.2568523 C79.0982699,37.9927454 81.0962277,37.7237843 82.8751322,38.26 C83.4623831,38.4370152 83.9987257,38.8550691 84.3537171,39.3552481 C84.543888,39.6231967 84.6588382,40.2232974 84.3520577,40.3409713 C82.756086,40.9531494 78.7874892,39.6211118 79.9279193,42.5862299 C80.0498094,42.9031441 80.419367,43.1086191 80.7493553,43.1886163 C81.6584474,43.4090023 82.613833,43.5768085 83.5422379,43.4624283 C84.9186921,43.2928481 86.2150857,42.7211998 87.5515096,42.3505856" id="Path-16" stroke="#812D30" fill="#812D30"></path>
                <path d="M57.4122253,100.368456 C59.6357599,100.368456 62.2851089,101.677008 64.0828291,100.368456 C66.4107262,98.6739909 61.9235593,89.9523898 59.8439684,88.6796971 C59.5243034,88.4840647 58.8770127,88.3362564 58.7196425,88.6763922 C57.9099799,90.4263759 60.7991326,95.1358536 60.9233477,95.4990212 C61.0208522,95.7840948 60.9480444,97.5342621 59.8604929,96.7641357 C55.0806403,93.3793846 57.0982872,85.0544808 51.4125156,82.6079406 C51.0239993,82.4407653 50.5064892,82.2969439 50.1467401,82.5193694 C46.91276,84.5188732 52.3719916,88.7273603 53.2883751,89.8106328 C53.7728484,90.3833369 55.4470552,92.2170042 54.956026,93.5154221 C54.8837578,93.7065193 54.6228165,93.8702969 54.4245986,93.8207946 C49.7964951,92.6649862 46.6267432,88.6486988 45.5225285,84.0521805 C44.8257545,81.1517171 45.6255362,78.7157339 42.4258402,77.502536 C41.9094353,77.3067357 41.0965828,76.9669031 40.7714088,77.4133038 C37.3687694,82.0844659 47.1123127,89.3725794 46.0109923,91.9978135 C45.3076979,93.6742668 37.5588018,87.7468818 36.4248085,91.3236145 C34.3511409,97.8641774 49.9738248,94.6998924 51.8613206,95.5538825 C53.1974407,96.1584047 55.4479655,97.4924265 54.8211862,99.3637675 C53.5928382,103.03118 48.0879001,96.0764274 46.307111,99.3300576 C46.0836988,99.7382478 46.059946,100.33014 46.3044671,100.726046 C48.7051024,104.612936 53.1163627,102.361059 56.3116947,101.216493 L57.4122253,100.368456 Z" id="Path-18" stroke="#812D30" fill="#812D30"></path>
                <path d="M27.832036,80.2953059 C32.3880422,90.9137888 35.3121323,65.2087651 25.8045043,68.4384241 C25.218909,68.6373458 25.3134521,69.6859522 25.5141494,70.2709413 C26.1023864,71.9855249 27.3724015,73.3969091 28.0784353,75.0664408 C28.2006832,75.3555158 28.2548775,77.1582346 27.0829327,76.5634093 C22.9145621,74.447736 23.5287352,70.0569453 22.4254911,66.1279666 C21.9005911,64.2586422 21.1608912,61.7110653 18.5351066,61.9955164 C17.3395282,62.1250333 17.4828664,63.9682674 17.9729695,65.7236984 C18.0352532,65.9467834 21.0423191,72.5400462 18.7511702,70.8163628 C16.2483138,68.933407 14.3400676,58.8346428 9.16512402,60.3883492 C8.23911277,60.6663715 9.5388082,63.403173 9.55391483,63.4305755 C10.6877469,65.487276 16.6294382,68.2803457 15.1152332,71.1841045 C14.7598579,71.8656001 13.0556571,70.9129837 12.9273562,70.8268874 C12.3685761,70.4519182 8.22494289,66.1218658 5.90683409,67.2955772 C5.48082485,67.5112754 5.73079689,68.2573397 5.82387554,68.7256835 C6.02160977,69.720623 6.1026348,70.8520143 6.76613609,71.6193273 C9.27270236,74.5180722 13.7034581,73.3946316 16.7793569,73.8369208 C17.2510134,73.9047412 18.4067583,74.3159278 18.0051624,74.5724041 L17.9636831,75.3896077 C17.793203,75.4984835 11.1827538,77.1408709 13.3328625,79.4651013 C13.7687468,79.9362847 14.5443337,80.1734622 15.1715707,80.0371438 C17.0519247,79.6284836 18.6896796,78.4483265 20.53416,77.9000325 C21.5598348,77.5951383 22.7223282,77.1064379 23.7187778,77.4963834 C24.2805372,77.7162195 24.1586713,78.6824001 24.0493738,79.2756586 C23.7013751,81.1645686 19.3250791,81.6409678 20.4852516,84.1002555 C20.6946317,84.5440912 21.0350821,85.0708182 21.5197571,85.147762 C22.1815222,85.2528194 22.9230564,84.9901482 23.4451384,84.5701476 C24.7025495,83.5585948 25.6127916,82.1787951 26.6966183,80.9831189 L27.832036,80.2953059 Z" id="Path-20" stroke="#E5A63B" fill="#E5A63B"></path>
                <path d="M31.2041737,51.8329657 C28.7268689,44.4143206 30.1357432,47.8240606 31.2255802,40.1742284 C31.2996479,39.6543294 31.0535188,38.953333 30.5736562,38.7399955 C29.9597568,38.4670679 29.200094,39.2403141 28.5744224,38.9955757 C27.6724136,38.6427449 27.658844,36.8495645 26.3844765,37.430958 C22.9421237,39.0014323 27.6334243,45.6741353 26.6128121,47.7488724 C26.5488647,47.8788671 26.2644344,47.8652805 26.1781961,47.7488724 C24.0934849,44.9348422 21.3686711,40.3918285 20.4509946,37.0553719 C19.9644377,35.2863649 20.4109236,33.3537235 19.972917,31.5720744 C19.8989806,31.2713284 19.2741228,31.6221961 19.0602233,31.3982279 L18.7559921,32.0404218 C18.2947479,31.5574657 18.384912,30.7041659 17.9302216,30.2150344 C17.7228367,29.9919409 17.2173509,29.9403841 17.017528,30.1702755 C12.1822577,35.733135 23.251321,41.8086354 21.6672709,45.7963436 C21.6191363,45.9175181 21.3724104,45.8842508 21.2761164,45.7963436 L18.6612847,42.8539282 C13.2214855,37.8879136 14.8702124,41.1537113 12.686936,33.1782076 C12.347558,31.9384606 11.8575596,30.7320502 11.2462163,29.6013825 C11.0697357,29.2749852 10.7182791,29.0515935 10.3769842,28.9059969 C10.0800431,28.7793216 9.71844812,28.7163469 9.41239606,28.8190737 C9.18924498,28.8939746 9.149383,29.2145238 8.97778003,29.3756417 L8.84739522,31.4734749 C8.19115382,32.0896195 7.04453369,31.6860982 6.19623741,31.98723 C5.72284587,32.1552765 5.30431187,32.4845109 4.96244682,32.85257 C4.83465816,32.9901499 4.74012715,33.2790381 4.87552361,33.4091379 L7.71933957,36.9989367 C9.47842301,38.6892061 13.6444623,40.2405113 14.0394351,43.4468223 C14.0642956,43.6486344 13.6035968,43.510818 13.4309727,43.4033607 C12.2331958,42.6577527 11.2199994,41.6320361 9.99620864,40.9299414 C8.66983553,40.1689947 7.29920814,39.4159196 5.81805659,39.0357939 C4.09962951,38.5947733 2.29022813,38.3438997 0.522876461,38.4986863 C-0.921030327,38.6251452 2.42216216,41.6594052 1.8591586,43.384549 C1.66054925,43.9931236 0.916635732,44.4611121 0.989926527,45.0970659 C1.04361017,45.5628858 1.68128262,45.8548688 2.14847016,45.8949431 C7.39381852,46.344877 12.6163502,44.9298265 17.5708526,47.3680968 C18.0635405,47.6105644 18.5013112,47.991042 18.8286443,48.4319331 C18.9668816,48.6181274 19.1038388,49.0828185 18.875998,49.1260214 C15.4692121,49.772012 9.9045862,46.9477203 6.93119258,49.0767216 C4.75541611,50.6346153 8.86385574,51.0437534 9.17368158,51.5942512 C9.76634439,52.6472932 8.74064632,54.1089081 9.21779187,55.2190787 C9.44497113,55.7476548 10.341715,55.7512197 10.8991721,55.6089358 C14.1299562,54.7843187 17.1502133,53.2599141 20.3647201,52.3739654 C21.6582735,52.0174498 23.0274216,51.7585647 24.3618903,51.8984825 C24.6602846,51.9297688 24.6440866,52.6166848 24.4047032,52.7975538 C23.5457148,53.4465729 16.6474113,54.6562535 18.6022548,56.6046606 C18.9531822,56.9544325 19.6697257,56.8960956 19.895724,57.337021 C20.2626746,58.052946 19.7663014,59.0559772 20.204496,59.7306526 C20.467909,60.1362218 21.1967727,60.2226114 21.6289987,60.0056932 C23.0521345,59.2914741 24.225753,58.1537543 25.4276726,57.1093341 C26.9956365,55.746836 28.426307,54.233949 29.9256242,52.7962565 L31.2041737,51.8329657 Z" id="Path-21" stroke="#D47930" fill="#D47930"></path>
                <path d="M43.2536931,44.9780346 C46.9409337,37.9244677 53.4847599,44.64793 55.9625199,34.8856851 C56.2830556,33.6227914 57.8295644,29.5306925 55.8205828,28.5889824 C52.2238778,26.9030269 47.6778664,36.2331542 46.1587238,34.7117732 C44.1293897,32.6794489 48.3537628,28.8839696 49.0575154,27.6929071 C50.2264485,25.7145525 51.2106071,23.617472 52.0062191,21.4617138 C52.8866954,19.0760106 51.5478527,16.1847528 48.7440061,16.366797 C46.4793265,16.5138349 45.3476728,24.8296142 45.0832775,25.5373354 C44.6990933,26.5657023 44.3467897,28.8426799 43.3667748,28.3480013 L42.1345739,28.919649 C41.7016797,28.7011385 41.7735958,28.0051214 41.7305992,27.5221147 C41.6377769,26.4793872 41.532003,25.4094027 41.7305992,24.3815621 C42.2288168,21.8030208 47.4023144,10.5971082 42.7436555,7.6766609 C40.1718202,6.06441378 37.9509919,11.0683376 37.6978707,12.7388231 C37.1642227,16.2606573 37.3514805,19.8588022 36.9640092,23.3997007 C36.9276128,23.7323091 36.2192235,25.1307552 35.4643115,24.4728074 C31.4436304,20.9685596 37.3765416,8.71015609 31.8885892,4.97907672 C30.0821961,3.75096914 28.8310831,4.89858821 27.8987538,6.21049777 C26.3427145,8.40004888 29.0078388,12.3013665 29.4382251,14.0731875 C29.7971946,15.5509988 29.8648771,16.4079237 29.1130176,17.4204067 C29.0109867,17.5578055 28.9183157,17.7754613 28.7472567,17.7807085 C25.9643851,17.8660727 26.939153,11.3638907 22.0863528,10.2104716 C21.5786656,10.0898039 20.8076285,9.71609066 20.5219256,10.1527609 C17.5260936,14.7316104 26.5210039,16.1921612 24.5928679,20.3355758 C23.2685137,23.18151 18.1957821,13.6513719 15.7896501,17.9647588 C14.610612,20.0783784 17.105576,21.6568425 18.7960644,22.1612608 C22.6903963,23.3232756 26.7978966,23.8287587 30.5581241,25.3704424 C31.5992959,25.7973201 30.7847431,28.1241135 30.0769419,28.3370831 C28.7175292,28.7461154 27.2326652,28.4402068 25.8305279,28.6622905 C25.5454603,28.7074423 25.2414132,28.874493 25.0990061,29.1255357 C24.7250703,29.7847294 24.7479468,31.6846794 25.9358109,31.8051828 C29.5087605,32.1676423 33.1654869,30.9164522 36.7058709,31.518969 C37.4168995,31.6399747 37.4278323,33.1699249 36.9109778,33.672981 C35.3664457,35.1762793 30.8980511,32.2895938 31.5961364,36.4064394 C32.0459382,39.0590725 37.6843353,36.5538577 37.7477826,36.5530557 C41.9577118,36.4998422 43.9481356,37.1035392 42.8793536,38.5713697 C41.9535434,39.8428474 40.3925743,40.5102706 39.2778954,41.6198972 C38.9976779,41.8988445 38.7994547,42.2898103 38.7499207,42.6820856 C38.7035207,43.0495412 38.8051762,43.4526185 39.0072791,43.7629909 C39.3052573,44.2206003 39.7365908,44.592724 40.1911279,44.895368 C40.479024,45.0870576 40.8503814,45.1048941 41.1800081,45.2096572 L43.2536931,44.9780346 Z" id="Path-22" stroke="#33629A" fill="#33629A"></path>
                <path d="M67.4427207,30.2940206 C68.6024721,35.8174408 73.7284716,25.1483249 73.3814546,23.6206208 C73.1985216,22.8152783 71.4528478,23.5440054 71.3882307,23.5901941 C69.4778983,24.9557126 68.8573083,31.2232474 66.8967002,28.6388094 C64.2680816,25.1738122 71.2148223,21.4912894 70.0052,19.6551951 C67.4539148,15.7825808 66.2236069,22.517514 65.8738106,23.1271554 C65.6290977,23.5536525 64.4485553,24.3570995 64.613593,23.8939076 L64.5853792,20.5823789 C65.1649521,18.9557601 66.6398466,17.7760499 67.3536535,16.2037036 C67.6016731,15.6573756 67.5562124,14.9806596 67.3901655,14.404104 C67.3094681,14.1239027 66.9677068,13.9601881 66.6859263,13.8851909 C66.239731,13.7664339 65.5811672,13.4809309 65.3012359,13.8481257 C61.2569213,19.1531812 63.7158147,22.2118887 62.4770872,10.7982663 C62.4271806,10.3384276 61.8790862,10.0440885 61.4547509,9.86001825 C60.9906641,9.65870438 60.4119053,9.50404877 59.9455877,9.7001399 C56.088162,11.3222253 61.3267914,16.1941565 60.1851287,17.1541223 C58.5642842,18.5170075 56.3825291,12.8641245 54.213202,14.4881923 C53.3143194,15.1611411 54.4549232,17.400827 54.8029263,17.6293317 C56.2389039,18.5722184 58.0489229,18.7665807 59.6191925,19.4632304 C59.9693448,19.6185754 60.8842882,20.0318351 60.5264606,20.1685761 L60.6725087,21.1178884 C59.1135301,21.7136396 57.3371655,21.5012082 55.7433872,21.9963895 C55.441783,22.0900968 54.9422541,22.7211785 55.2471558,22.8035262 L57.6038401,24.306604 C58.6363881,24.5854741 59.7527587,24.1619219 60.8124714,24.306604 C61.299507,24.3730988 61.8630653,24.5282917 62.1501387,24.9273082 C62.474968,25.3788033 62.9259084,26.2976764 62.4411284,26.5703487 C61.4699603,27.1165977 59.3364736,25.5546837 59.0991729,26.6433727 L58.0613467,27.1545409 C57.5360875,29.5643274 60.678944,28.887908 61.6273531,28.7245573 C62.2623342,28.6151904 62.7490559,28.0401203 63.3799296,27.9091224 C63.6008938,27.8632403 63.8571113,28.0434074 63.9718668,28.2377305 C64.1760003,28.5834034 64.3463346,29.0132089 64.2639629,29.4061149 C64.2016367,29.7034052 63.8847049,29.9300181 63.5967889,30.0268191 C62.9197979,30.254432 59.6331476,30.0817672 60.454543,31.9619557 C60.6062907,32.3093087 60.9260451,32.6389549 61.2943193,32.7287079 C61.9206446,32.8813512 62.6243023,32.8684665 63.2261366,32.6374279 C64.4121223,32.1821389 65.4227582,31.3606139 66.521069,30.7222069 L67.4427207,30.2940206 Z" id="Path-23" stroke="#77994E" fill="#77994E"></path>
                <path d="M94.8756182,85.8384015 C96.7984355,86.5425745 101.933436,90.296084 102.625383,89.5494045 C105.199274,86.7719211 107.165513,83.4490912 108.925391,80.0961579 C109.251237,79.475353 109.108825,78.5643712 108.683885,78.0066972 C108.243099,77.4282288 105.70667,77.6496961 106.468639,75.9459872 C108.418952,71.5852271 109.906519,72.272893 109.84829,68.4132907 C109.845716,68.2426697 109.628519,68.1178019 109.46303,68.0761881 C104.690387,66.8760585 106.184596,72.3472201 104.340365,76.8674487 C104.337404,76.8747063 103.022996,78.2920221 102.51038,77.721346 C101.138384,76.1939551 101.679167,71.617872 101.879301,70.8182909 C104.675553,59.6465999 105.642187,63.4983468 106.260196,57.1444342 C106.319871,56.5309022 106.586285,55.8456129 106.307635,55.295761 C106.114829,54.915301 105.322121,55.2286975 105.103698,54.8623434 C104.502768,53.8544253 104.845189,52.3645349 104.047108,51.5042558 C102.704462,50.0569732 100.762474,51.5558 100.64805,52.8814168 C100.400012,55.7549785 100.158822,58.6318003 100.065847,61.5145482 C99.9452467,65.2538456 99.8222137,69.0014779 100.007627,72.7381223 C100.122899,75.0612064 101.88232,78.6220079 100.479139,81.0384638 C100.320747,81.3112352 99.797655,81.673194 99.6123043,81.4179737 C98.2651385,79.5629812 98.7043872,76.3426559 98.1000149,74.4157285 C97.4972822,72.4940289 95.8432303,71.458618 95.7927672,69.3591904 C95.6222144,62.2636479 96.2619207,58.7397923 94.8986188,52.0117066 C94.3897979,49.5006038 91.2215344,51.3453555 90.1698392,50.9450538 C88.853748,50.4441161 88.1336435,48.9734526 86.9511928,48.2087011 C85.3887301,47.1981764 86.121194,53.731292 86.2683625,54.1119489 C88.4218111,59.6819265 91.0826654,65.0439938 93.331703,70.5760659 C93.7965074,71.7193689 94.1799786,72.9063976 94.4026684,74.1203146 C94.6901444,75.6873908 94.9611682,77.2888937 94.854774,78.8785637 C94.8376224,79.1348305 94.2680857,79.0572125 94.0842539,78.8778449 C93.375508,78.1863105 92.7764026,77.355049 92.3685528,76.4527192 C91.7254214,75.0298501 91.6296778,73.3968828 90.9676726,71.9826963 C89.6981759,69.2707769 88.1776619,66.678035 86.6011524,64.132304 C86.27844,63.6111915 85.8164959,63.163506 85.3008997,62.8320513 C84.8908879,62.5684723 84.3051552,62.1212814 83.904332,62.3986338 C83.4472626,62.7149061 83.5558286,63.475969 83.5672295,64.0316764 C83.5878953,65.0389791 84.362701,66.0835326 83.9992095,67.0231919 C83.8080924,67.5172474 82.184699,66.5437644 82.4100118,67.0231919 L81.9765943,68.0194054 C85.2417104,74.967021 91.1695985,72.5003699 93.2670138,82.4120309 C93.457835,83.3137863 91.2075031,81.9174253 90.7534795,81.687512 C89.4367198,81.0207171 88.0971351,80.3716209 86.6874046,79.934435 C85.4686616,79.5564781 84.1949179,79.2156651 82.9196189,79.2580736 C82.6466707,79.2671501 82.6795098,79.8087261 82.7751463,80.0645321 C82.9368762,80.4971227 83.6095447,80.6942004 83.6290436,81.1556231 C83.6745327,82.2320765 83.0325667,83.2421614 82.9548385,84.316768 C82.9354226,84.5851975 83.1368782,84.8560925 83.3494426,85.0211614 C83.7951113,85.3672497 84.2918228,85.8041732 84.8559819,85.7931191 C87.7462579,85.7364872 90.6013401,85.1462272 93.4740192,84.8227812 L94.8756182,85.8384015 Z" id="Path-6" stroke="#409171" fill="#409171"></path>
                <path d="M82.7219575,58.410186 C82.9343083,57.2966033 84.3174964,52.0921299 83.873425,49.8784009 C83.7483566,49.2549257 80.9514206,46.7384861 80.7151551,47.8061906 C80.3077353,49.6473569 80.6930194,51.5820438 80.5225251,53.4600256 C80.498138,53.7286477 80.1741295,54.4388024 80.137265,54.1716067 L79.3667449,54.3613616 C78.9903729,51.6333936 79.3112159,48.8458756 79.024611,46.1070213 C78.9378776,45.2781793 78.7969285,44.3609358 78.2540909,43.7286155 C77.9492091,43.3734763 77.243915,43.3185499 76.8575232,43.5827054 C75.0216409,44.8378008 77.9365791,53.7748739 76.9214936,52.8131337 C73.3669127,49.4453551 74.9427233,46.9100275 74.4266473,42.2357328 C74.1967535,40.1534974 73.3223112,39.6135247 71.5752917,38.8194249 C71.3217516,38.7041795 70.6477006,38.6917766 70.7084566,39.1989348 C71.0506395,42.0552922 73.1872636,44.3772862 72.8209179,47.3296469 C72.7951468,47.5373349 72.3675597,47.4953094 72.1948703,47.3770857 C71.7074673,47.043408 71.2811673,46.5912904 70.9909327,46.076833 C69.991162,44.3046824 69.3709964,42.3340824 68.3552077,40.5710644 C67.6068873,39.2722683 66.7026896,38.0590667 65.7194827,36.9276256 C65.3130456,36.4599116 64.8122864,36.0222868 64.2266,35.8200029 C63.5485169,35.5858072 62.7391463,35.3882002 62.0796377,35.670499 C59.0591372,36.963407 67.7313817,41.1773873 66.8652001,43.7350844 C66.284923,45.4485506 62.4045637,39.8218746 61.3472124,43.0953802 C60.1664383,46.7509963 68.8713971,46.2027391 71.1655935,48.6608067 C71.2950668,48.799528 71.2628797,49.0671534 71.1655935,49.2300715 C70.2343087,50.789626 64.6138798,47.3210955 65.7733903,50.8889898 C65.905439,51.2953127 66.3507416,51.6112482 66.7696038,51.6954483 C68.941093,52.1319637 71.2060698,51.9684628 73.3750886,52.4170922 C73.9463626,52.5352517 75.2825489,52.9792541 74.8456895,53.3658669 L75.1303219,54.6467128 C73.0103721,56.5228305 72.4871099,54.295229 71.8556115,56.5442623 C71.748655,56.9251798 71.4278446,57.6187205 71.807454,57.7302308 C73.5188014,58.2329391 75.3800641,57.8456917 77.1457495,58.0982404 C78.7268495,58.3243875 80.2604141,58.8074255 81.8177464,59.1620181 L82.7219575,58.410186 Z" id="Path-15" stroke="#C85F42" fill="#C85F42"></path>
                <path d="M65.232849,83.3616591 C64.8873564,84.0595907 63.2414128,86.4586955 63.8836255,87.7230223 C64.5111145,88.9583624 67.1080461,89.3232289 68.0464316,88.5848155 C69.6228209,87.3443586 68.8138754,82.693253 68.8627222,81.6394515 C68.9997939,78.6823169 74.4810778,78.6815411 75.9459731,78.0440501 C76.7396947,77.6986395 77.4625736,77.0835787 77.9053462,76.3397678 C78.2868444,75.6988916 78.3137431,74.8776688 78.2741938,74.1328877 C78.2625894,73.9143578 77.984522,73.7303215 77.7660805,73.7171586 C75.8755792,73.60324 73.7059054,74.7386042 72.08445,73.7599035 C71.2284452,73.2432242 72.7378227,71.8495858 73.2771718,71.0076807 C73.6401677,70.4410568 80.1323582,64.1255585 75.9177063,62.5110888 C72.3992164,61.1632917 72.7208767,64.8253502 70.9227527,67.2964543 C70.7574994,67.5235566 70.1280564,67.7114092 70.0912946,67.4329623 C69.6049948,63.749559 69.9243118,59.9917781 69.4714929,56.3041091 C69.397529,55.7017615 69.0175226,55.1095663 68.5331724,54.7439187 C68.0272758,54.3620052 67.1877321,53.8043264 66.7061708,54.2165012 C62.4342534,57.872893 68.3885904,66.460012 67.7961668,71.2289892 C67.6896635,72.0863352 65.957639,71.8582365 65.7085589,71.5895635 C64.86492,70.6795627 64.176832,69.5778652 63.7919307,68.3981707 C62.9908779,65.9430018 63.139202,63.2204364 62.1938214,60.817148 C60.9238832,57.5887895 59.0347414,54.6314046 57.2147247,51.678003 C56.9362187,51.2260619 56.4519817,50.8948789 55.9585749,50.6990059 C55.5837134,50.5501931 55.1418133,50.6092103 54.7486172,50.6990059 C50.5700406,51.6532829 65.7791813,71.4692458 49.6536956,47.2559696 C49.3744538,46.8366731 48.8885326,46.5512641 48.4078873,46.4003813 C47.7474822,46.1930687 46.9649382,45.9188893 46.3395835,46.2156128 C44.4312549,47.1210924 48.3718027,49.9741299 47.699838,51.2209079 C47.547895,51.5028262 47.0499528,51.3475507 46.740145,51.2664106 C45.6419796,50.9787958 44.645247,50.3414951 43.5301376,50.1288435 C42.468938,49.9264726 41.30655,49.6694315 40.2904844,50.0364593 C39.8766627,50.1859418 39.9754117,50.9461012 40.1519081,51.3491427 C41.5568494,54.557422 44.4938177,54.1934235 47.5984911,55.5126382 C48.4437933,55.8718178 51.2018309,57.080819 49.8701781,58.697826 C49.8658791,58.7030462 47.7931277,58.375548 44.5311966,57.8574053 C42.2980522,57.5026806 35.1095203,56.0331978 34.0524802,58.4061952 C33.2056869,60.3072001 35.2529355,60.2514879 36.8019454,60.5910134 C37.8982615,60.8313136 41.1375489,60.4464863 40.147082,60.9743391 L40.6021089,61.8843927 C37.3967797,63.5926192 36.0533252,62.550376 33.8215197,64.5049336 C32.0232328,66.0798267 37.0144023,66.694084 37.6285775,66.4649961 C40.9021987,65.2439327 48.1630096,60.5259011 53.2208302,60.9653764 C53.5535867,60.9942897 53.5469056,61.7873651 53.264954,61.9664354 C52.2586941,62.6055213 50.9564271,62.6004779 49.8708675,63.0929716 C47.33863,64.2417899 44.864156,65.5211641 42.4373837,66.8786569 C42.1815936,67.0217413 41.9566138,67.277482 41.8830783,67.5611971 C41.7613024,68.0310342 41.4337642,68.8337263 41.8830783,69.017283 C42.9114737,69.4374097 44.2560494,68.3603427 45.2144263,68.922141 C45.7249371,69.2214013 44.286644,69.9715755 44.4705263,70.5340391 L44.4705263,72.0356276 C44.5906886,72.4031827 44.9083237,72.7083225 45.244072,72.9001786 C48.2187741,74.6000084 42.3503573,70.2583493 53.7613469,65.5583897 C57.5362511,64.0035817 58.2966701,66.9645559 56.3536209,68.084478 C55.3756499,68.6481546 54.2528771,68.9270864 53.2656434,69.4743781 C51.7723589,70.3022088 50.3378477,71.23571 48.9290998,72.2004025 C48.7146318,72.3472675 48.5090779,72.5473852 48.4209865,72.7919374 C47.8316263,74.4280718 49.9937488,74.0841565 50.2410939,74.6575474 C50.523713,75.3127099 50.232928,76.0895784 50.3320992,76.7961735 C50.3566839,76.9713393 50.4484271,77.1691255 50.6051153,77.2512003 C50.8071013,77.3570025 51.0856697,77.4025051 51.2876556,77.296703 C52.7407398,76.5355636 54.1727366,75.7072921 55.4697658,74.7030501 C56.8454275,73.6379258 57.7766264,72.0208203 59.2651032,71.1200585 C62.4953822,69.1652333 64.6560633,73.908339 59.8221664,75.6868732 C58.5723227,76.1467278 57.1352687,75.9764732 55.9103145,76.4990272 C55.5322566,76.6603032 55.354857,77.1849715 55.3470464,77.5959176 C55.3373456,78.1063213 55.7846634,78.5336192 55.8620541,79.0382148 C55.9586284,79.6678895 55.6822538,80.3379878 55.8613646,80.9493275 C55.9436822,81.230293 56.2914194,81.3836609 56.5728611,81.4643351 C56.9205811,81.5640077 57.3588607,81.6676595 57.6580312,81.4643351 C58.2709238,81.0477967 64.7933434,74.0286342 68.2698084,75.41041 C68.6821805,75.5743137 68.8628989,76.1006168 69.0026774,76.5217785 C69.1031292,76.8244464 69.1859894,77.2566329 68.9557958,77.4773349 C67.8746506,78.5139011 58.1384627,82.8004444 62.9549572,83.4885151 L65.232849,83.3616591 Z" id="Path-17" stroke="#409171" fill="#409171"></path>
                <path d="M28.3647435,105.268556 C29.3327218,103.635753 34.9068471,97.1353578 32.6066283,93.503576 C32.1215849,92.7377481 30.5339362,92.9377331 29.8880056,93.5737623 C28.4766644,94.9634694 28.1968455,97.1641084 27.1693829,98.8574751 C26.910503,99.2841366 26.1748505,100.358108 26.0672386,99.8707899 L25.2589994,99.9431696 C24.7193468,97.4993667 26.7779384,92.1187957 25.5605812,89.9613609 C24.7587537,88.5403394 22.2740621,88.3043531 21.7990339,90.0172906 C21.4105406,91.418186 21.4258281,92.9158934 20.9907947,94.3030419 C20.2289432,96.7322836 18.376354,94.896876 18.1756659,93.2743738 C17.9063365,91.0969282 18.2213841,88.8637511 17.8587308,86.699891 C17.5997387,85.154551 17.4193806,83.3802815 16.3288887,82.2551238 C15.6505374,81.5552084 14.37788,82.0066505 13.4084804,82.1081713 C13.1691325,82.1332371 12.875596,82.3748879 12.8941463,82.6148287 C13.156369,86.0065687 14.08216,89.3339706 14.2298795,92.7326233 C14.2582356,93.3850267 13.7119583,93.8190446 12.122097,91.5273928 C9.26508793,87.4092539 10.8812019,86.9471929 6.58615211,86.2447767 C6.07705068,86.1615178 5.22436599,85.905731 5.04534337,86.3895359 C1.20363546,96.7716722 13.0596164,92.7725139 16.7401366,97.1236541 C19.414517,100.285328 9.12960216,98.2160139 10.1996502,102.571866 C11.3446368,107.232771 19.2206079,102.054541 20.1529457,101.687957 C21.7073851,101.07677 23.9169499,100.401292 23.2433365,102.752815 C22.7571044,104.450207 20.3698173,103.41138 19.1867873,106.345477 C18.9219189,107.002391 18.6757962,107.772234 18.8852055,108.448872 C19.01049,108.853689 19.5963482,108.976351 20.0169597,109.02791 C20.7692275,109.120123 21.5529474,109.062382 22.2848547,108.865604 C22.8627124,108.710243 23.3679928,108.343247 23.8552733,107.995951 C25.7768969,106.626367 27.6182829,105.147557 29.4997876,103.72336" id="Path-19" stroke="#C85F42" fill="#C85F42"></path>
            </g>
        </g>
    </g>
</svg>